<svg width="230" height="236" viewBox="0 0 230 236" fill="none" xmlns="http://www.w3.org/2000/svg">
<path d="M55.554 229.756V232H46.561V230.215L51.151 225.88C51.6383 225.415 51.967 225.019 52.137 224.69C52.307 224.35 52.392 224.016 52.392 223.687C52.392 223.211 52.2277 222.848 51.899 222.599C51.5817 222.338 51.1113 222.208 50.488 222.208C49.9667 222.208 49.4963 222.31 49.077 222.514C48.6577 222.707 48.3063 223.001 48.023 223.398L46.017 222.106C46.4817 221.415 47.122 220.876 47.938 220.491C48.754 220.094 49.689 219.896 50.743 219.896C51.627 219.896 52.3977 220.043 53.055 220.338C53.7237 220.621 54.2393 221.029 54.602 221.562C54.976 222.083 55.163 222.701 55.163 223.415C55.163 224.061 55.027 224.667 54.755 225.234C54.483 225.801 53.956 226.447 53.174 227.172L50.437 229.756H55.554ZM67.4213 229.501H65.4833V232H62.7973V229.501H56.3883V227.648L61.9983 220.1H64.8883L59.6863 227.257H62.8823V225.03H65.4833V227.257H67.4213V229.501ZM73.0461 217.686H75.4091L69.7991 233.7H67.4361L73.0461 217.686ZM84.7495 220.1V221.885L80.3295 232H77.3375L81.6045 222.344H77.6605V224.282H75.2125V220.1H84.7495ZM95.771 232.136C94.7963 232.136 93.918 231.938 93.136 231.541C92.3653 231.133 91.759 230.572 91.317 229.858C90.8863 229.144 90.671 228.334 90.671 227.427C90.671 226.52 90.8863 225.71 91.317 224.996C91.759 224.282 92.3653 223.727 93.136 223.33C93.918 222.922 94.7963 222.718 95.771 222.718C96.7343 222.718 97.573 222.922 98.287 223.33C99.0123 223.727 99.5393 224.299 99.868 225.047L97.811 226.152C97.335 225.313 96.6493 224.894 95.754 224.894C95.0626 224.894 94.4903 225.121 94.037 225.574C93.5836 226.027 93.357 226.645 93.357 227.427C93.357 228.209 93.5836 228.827 94.037 229.28C94.4903 229.733 95.0626 229.96 95.754 229.96C96.6606 229.96 97.3463 229.541 97.811 228.702L99.868 229.824C99.5393 230.549 99.0123 231.116 98.287 231.524C97.573 231.932 96.7343 232.136 95.771 232.136ZM105.084 222.718C106.501 222.718 107.589 223.058 108.348 223.738C109.107 224.407 109.487 225.421 109.487 226.781V232H107.005V230.861C106.506 231.711 105.577 232.136 104.217 232.136C103.514 232.136 102.902 232.017 102.381 231.779C101.871 231.541 101.48 231.212 101.208 230.793C100.936 230.374 100.8 229.898 100.8 229.365C100.8 228.515 101.117 227.846 101.752 227.359C102.398 226.872 103.39 226.628 104.727 226.628H106.835C106.835 226.05 106.659 225.608 106.308 225.302C105.957 224.985 105.43 224.826 104.727 224.826C104.24 224.826 103.758 224.905 103.282 225.064C102.817 225.211 102.421 225.415 102.092 225.676L101.14 223.823C101.639 223.472 102.234 223.2 102.925 223.007C103.628 222.814 104.347 222.718 105.084 222.718ZM104.88 230.351C105.333 230.351 105.736 230.249 106.087 230.045C106.438 229.83 106.688 229.518 106.835 229.11V228.175H105.016C103.928 228.175 103.384 228.532 103.384 229.246C103.384 229.586 103.514 229.858 103.775 230.062C104.047 230.255 104.415 230.351 104.88 230.351ZM111.887 219.386H114.539V232H111.887V219.386ZM117 219.386H119.652V232H117V219.386ZM131.348 232.136C130.373 232.136 129.495 231.938 128.713 231.541C127.942 231.133 127.336 230.572 126.894 229.858C126.463 229.144 126.248 228.334 126.248 227.427C126.248 226.52 126.463 225.71 126.894 224.996C127.336 224.282 127.942 223.727 128.713 223.33C129.495 222.922 130.373 222.718 131.348 222.718C132.311 222.718 133.15 222.922 133.864 223.33C134.589 223.727 135.116 224.299 135.445 225.047L133.388 226.152C132.912 225.313 132.226 224.894 131.331 224.894C130.64 224.894 130.067 225.121 129.614 225.574C129.161 226.027 128.934 226.645 128.934 227.427C128.934 228.209 129.161 228.827 129.614 229.28C130.067 229.733 130.64 229.96 131.331 229.96C132.238 229.96 132.923 229.541 133.388 228.702L135.445 229.824C135.116 230.549 134.589 231.116 133.864 231.524C133.15 231.932 132.311 232.136 131.348 232.136ZM145.815 227.461C145.815 227.495 145.798 227.733 145.764 228.175H138.845C138.97 228.742 139.264 229.189 139.729 229.518C140.194 229.847 140.772 230.011 141.463 230.011C141.939 230.011 142.358 229.943 142.721 229.807C143.095 229.66 143.441 229.433 143.758 229.127L145.169 230.657C144.308 231.643 143.05 232.136 141.395 232.136C140.364 232.136 139.451 231.938 138.658 231.541C137.865 231.133 137.253 230.572 136.822 229.858C136.391 229.144 136.176 228.334 136.176 227.427C136.176 226.532 136.386 225.727 136.805 225.013C137.236 224.288 137.819 223.727 138.556 223.33C139.304 222.922 140.137 222.718 141.055 222.718C141.95 222.718 142.761 222.911 143.486 223.296C144.211 223.681 144.778 224.237 145.186 224.962C145.605 225.676 145.815 226.509 145.815 227.461ZM141.072 224.724C140.471 224.724 139.967 224.894 139.559 225.234C139.151 225.574 138.902 226.039 138.811 226.628H143.316C143.225 226.05 142.976 225.591 142.568 225.251C142.16 224.9 141.661 224.724 141.072 224.724ZM153.139 222.718C154.273 222.718 155.185 223.058 155.876 223.738C156.579 224.418 156.93 225.427 156.93 226.764V232H154.278V227.172C154.278 226.447 154.12 225.908 153.802 225.557C153.485 225.194 153.026 225.013 152.425 225.013C151.757 225.013 151.224 225.223 150.827 225.642C150.431 226.05 150.232 226.662 150.232 227.478V232H147.58V222.854H150.113V223.925C150.465 223.54 150.901 223.245 151.422 223.041C151.944 222.826 152.516 222.718 153.139 222.718ZM165.233 231.558C164.973 231.751 164.65 231.898 164.264 232C163.89 232.091 163.494 232.136 163.074 232.136C161.986 232.136 161.142 231.858 160.541 231.303C159.952 230.748 159.657 229.932 159.657 228.855V225.098H158.246V223.058H159.657V220.831H162.309V223.058H164.587V225.098H162.309V228.821C162.309 229.206 162.406 229.507 162.598 229.722C162.802 229.926 163.086 230.028 163.448 230.028C163.868 230.028 164.225 229.915 164.519 229.688L165.233 231.558ZM175.399 227.461C175.399 227.495 175.382 227.733 175.348 228.175H168.429C168.553 228.742 168.848 229.189 169.313 229.518C169.777 229.847 170.355 230.011 171.047 230.011C171.523 230.011 171.942 229.943 172.305 229.807C172.679 229.66 173.024 229.433 173.342 229.127L174.753 230.657C173.891 231.643 172.633 232.136 170.979 232.136C169.947 232.136 169.035 231.938 168.242 231.541C167.448 231.133 166.836 230.572 166.406 229.858C165.975 229.144 165.76 228.334 165.76 227.427C165.76 226.532 165.969 225.727 166.389 225.013C166.819 224.288 167.403 223.727 168.14 223.33C168.888 222.922 169.721 222.718 170.639 222.718C171.534 222.718 172.344 222.911 173.07 223.296C173.795 223.681 174.362 224.237 174.77 224.962C175.189 225.676 175.399 226.509 175.399 227.461ZM170.656 224.724C170.055 224.724 169.551 224.894 169.143 225.234C168.735 225.574 168.485 226.039 168.395 226.628H172.9C172.809 226.05 172.56 225.591 172.152 225.251C171.744 224.9 171.245 224.724 170.656 224.724ZM179.697 224.061C180.015 223.619 180.44 223.285 180.972 223.058C181.516 222.831 182.14 222.718 182.842 222.718V225.166C182.548 225.143 182.349 225.132 182.247 225.132C181.488 225.132 180.893 225.347 180.462 225.778C180.032 226.197 179.816 226.832 179.816 227.682V232H177.164V222.854H179.697V224.061Z" fill="#242426"/>
<g filter="url(#filter0_d_1_299)">
<circle cx="115" cy="100" r="95" fill="white"/>
</g>
<mask id="mask0_1_299" style="mask-type:alpha" maskUnits="userSpaceOnUse" x="20" y="5" width="190" height="190">
<circle cx="115" cy="100" r="95" fill="#32D74B"/>
</mask>
<g mask="url(#mask0_1_299)">
<path d="M94 171C72.4 157.4 42 172 29.5 181C32.5 186.833 39.2 198.6 42 199C45.5 199.5 59.5 205 75.5 212.5C91.5 220 150.5 218 154 217C157.5 216 229 196 201 176.5C178.6 160.9 160.5 156.024 142 171C135 176.667 115.6 184.6 94 171Z" fill="#32D74B"/>
</g>
<path d="M77.7906 101.286C77.7906 96.7771 81.3604 93.1223 85.7639 93.1223C90.1673 93.1223 93.7371 96.7771 93.7371 101.286V112.473C93.7371 116.981 90.1673 120.636 85.7639 120.636C81.3604 120.636 77.7906 116.981 77.7906 112.473V101.286Z" fill="#242426"/>
<path fill-rule="evenodd" clip-rule="evenodd" d="M75 101.285C75 95.199 79.8191 90.265 85.7638 90.265C91.7085 90.265 96.5277 95.199 96.5277 101.285V112.472C96.5277 118.559 91.7085 123.493 85.7638 123.493C79.8191 123.493 75 118.559 75 112.472V101.285ZM85.7638 95.9793C82.9016 95.9793 80.5813 98.3549 80.5813 101.285V112.472C80.5813 115.403 82.9016 117.779 85.7638 117.779C88.6261 117.779 90.9464 115.403 90.9464 112.472V101.285C90.9464 98.3549 88.6261 95.9793 85.7638 95.9793Z" fill="#242426"/>
<path d="M136.263 101.286C136.263 96.7771 139.833 93.1223 144.236 93.1223C148.64 93.1223 152.209 96.7771 152.209 101.286V112.473C152.209 116.981 148.64 120.636 144.236 120.636C139.833 120.636 136.263 116.981 136.263 112.473V101.286Z" fill="#242426"/>
<path fill-rule="evenodd" clip-rule="evenodd" d="M133.472 101.285C133.472 95.199 138.291 90.265 144.236 90.265C150.181 90.265 155 95.199 155 101.285V112.472C155 118.559 150.181 123.493 144.236 123.493C138.291 123.493 133.472 118.559 133.472 112.472V101.285ZM144.236 95.9793C141.374 95.9793 139.054 98.3549 139.054 101.285V112.472C139.054 115.403 141.374 117.779 144.236 117.779C147.098 117.779 149.419 115.403 149.419 112.472V101.285C149.419 98.3549 147.098 95.9793 144.236 95.9793Z" fill="#242426"/>
<path fill-rule="evenodd" clip-rule="evenodd" d="M88.5571 87.6277V93.122C88.5571 94.7 87.3077 95.9791 85.7665 95.9791C84.2252 95.9791 82.9758 94.7 82.9758 93.122V87.6193H85.7665C82.9758 87.6193 82.9758 87.6212 82.9758 87.6193L82.9758 87.6114L82.9759 87.6012L82.9761 87.5739L82.9773 87.4926C82.9785 87.4266 82.9809 87.3373 82.9852 87.2262C82.994 87.0041 83.0108 86.6944 83.0433 86.3095C83.1081 85.5408 83.2357 84.4659 83.4876 83.1859C83.9893 80.6361 84.9965 77.2094 87.0325 73.7604C91.2133 66.6782 99.4482 60 115.002 60C130.555 60 138.79 66.6782 142.971 73.7604C145.007 77.2094 146.014 80.6361 146.516 83.1859C146.767 84.4659 146.895 85.5408 146.96 86.3095C146.992 86.6944 147.009 87.0041 147.018 87.2262C147.022 87.3373 147.025 87.4266 147.026 87.4926L147.027 87.5739L147.027 87.6012L147.027 87.6114L147.027 87.6156C147.027 87.6175 147.027 87.6193 144.237 87.6193L147.027 87.6156V93.122C147.027 94.7 145.778 95.9791 144.237 95.9791C142.695 95.9791 141.446 94.7 141.446 93.122L141.446 87.6224L141.446 87.604C141.445 87.5763 141.444 87.5265 141.441 87.4562C141.436 87.3156 141.424 87.0933 141.399 86.8011C141.35 86.2157 141.249 85.356 141.044 84.3145C140.632 82.2214 139.812 79.4575 138.194 76.7161C135.066 71.4172 128.683 65.7143 115.002 65.7143C101.32 65.7143 94.9372 71.4172 91.8091 76.7161C90.1908 79.4575 89.3708 82.2214 88.9589 84.3145C88.754 85.356 88.6532 86.2157 88.6038 86.8011C88.5792 87.0933 88.5675 87.3156 88.562 87.4562C88.5592 87.5265 88.558 87.5763 88.5574 87.604L88.5571 87.6277ZM141.446 87.6276C141.446 87.6292 141.446 87.6289 141.446 87.6276V87.6276Z" fill="#242426"/>
<path fill-rule="evenodd" clip-rule="evenodd" d="M136.259 106.772C137.801 106.772 139.05 108.051 139.05 109.629V109.716C139.05 113.777 139.05 117.666 138.748 121.145C138.445 124.647 137.82 127.975 136.435 130.843C135.011 133.793 132.826 136.16 129.621 137.739C126.492 139.282 122.543 140 117.655 140C116.114 140 114.865 138.721 114.865 137.143C114.865 135.565 116.114 134.286 117.655 134.286C122.069 134.286 125.097 133.628 127.2 132.591C129.228 131.591 130.531 130.175 131.432 128.31C132.373 126.363 132.911 123.845 133.189 120.64C133.466 117.438 133.469 113.791 133.469 109.629C133.469 108.051 134.718 106.772 136.259 106.772Z" fill="#242426"/>
<defs>
<filter id="filter0_d_1_299" x="0" y="0" width="230" height="230" filterUnits="userSpaceOnUse" color-interpolation-filters="sRGB">
<feFlood flood-opacity="0" result="BackgroundImageFix"/>
<feColorMatrix in="SourceAlpha" type="matrix" values="0 0 0 0 0 0 0 0 0 0 0 0 0 0 0 0 0 0 127 0" result="hardAlpha"/>
<feOffset dy="15"/>
<feGaussianBlur stdDeviation="10"/>
<feComposite in2="hardAlpha" operator="out"/>
<feColorMatrix type="matrix" values="0 0 0 0 0 0 0 0 0 0 0 0 0 0 0 0 0 0 0.05 0"/>
<feBlend mode="normal" in2="BackgroundImageFix" result="effect1_dropShadow_1_299"/>
<feBlend mode="normal" in="SourceGraphic" in2="effect1_dropShadow_1_299" result="shape"/>
</filter>
</defs>
</svg>
