<svg width="230" height="257" viewBox="0 0 230 257" fill="none" xmlns="http://www.w3.org/2000/svg">
<path d="M54.106 232.204C52.8933 232.204 51.794 231.943 50.808 231.422C49.8333 230.889 49.0627 230.158 48.496 229.229C47.9407 228.288 47.663 227.229 47.663 226.05C47.663 224.871 47.9407 223.817 48.496 222.888C49.0627 221.947 49.8333 221.216 50.808 220.695C51.794 220.162 52.899 219.896 54.123 219.896C55.1543 219.896 56.0837 220.077 56.911 220.44C57.7497 220.803 58.4523 221.324 59.019 222.004L57.251 223.636C56.4463 222.707 55.449 222.242 54.259 222.242C53.5223 222.242 52.865 222.406 52.287 222.735C51.709 223.052 51.2557 223.5 50.927 224.078C50.6097 224.656 50.451 225.313 50.451 226.05C50.451 226.787 50.6097 227.444 50.927 228.022C51.2557 228.6 51.709 229.053 52.287 229.382C52.865 229.699 53.5223 229.858 54.259 229.858C55.449 229.858 56.4463 229.388 57.251 228.447L59.019 230.079C58.4523 230.77 57.7497 231.297 56.911 231.66C56.0723 232.023 55.1373 232.204 54.106 232.204ZM64.5785 232.136C63.6152 232.136 62.7482 231.938 61.9775 231.541C61.2182 231.133 60.6232 230.572 60.1925 229.858C59.7619 229.144 59.5465 228.334 59.5465 227.427C59.5465 226.52 59.7619 225.71 60.1925 224.996C60.6232 224.282 61.2182 223.727 61.9775 223.33C62.7482 222.922 63.6152 222.718 64.5785 222.718C65.5419 222.718 66.4032 222.922 67.1625 223.33C67.9219 223.727 68.5169 224.282 68.9475 224.996C69.3782 225.71 69.5935 226.52 69.5935 227.427C69.5935 228.334 69.3782 229.144 68.9475 229.858C68.5169 230.572 67.9219 231.133 67.1625 231.541C66.4032 231.938 65.5419 232.136 64.5785 232.136ZM64.5785 229.96C65.2585 229.96 65.8139 229.733 66.2445 229.28C66.6865 228.815 66.9075 228.198 66.9075 227.427C66.9075 226.656 66.6865 226.044 66.2445 225.591C65.8139 225.126 65.2585 224.894 64.5785 224.894C63.8985 224.894 63.3375 225.126 62.8955 225.591C62.4535 226.044 62.2325 226.656 62.2325 227.427C62.2325 228.198 62.4535 228.815 62.8955 229.28C63.3375 229.733 63.8985 229.96 64.5785 229.96ZM78.4046 227.223C79.4812 227.586 80.0196 228.311 80.0196 229.399C80.0196 230.226 79.7079 230.867 79.0846 231.32C78.4612 231.773 77.5319 232 76.2966 232H71.4176V222.854H76.0926C77.2372 222.854 78.1326 223.064 78.7786 223.483C79.4246 223.891 79.7476 224.469 79.7476 225.217C79.7476 225.67 79.6286 226.073 79.3906 226.424C79.1639 226.764 78.8352 227.03 78.4046 227.223ZM73.8486 226.611H75.8546C76.7839 226.611 77.2486 226.282 77.2486 225.625C77.2486 224.979 76.7839 224.656 75.8546 224.656H73.8486V226.611ZM76.0756 230.198C77.0502 230.198 77.5376 229.864 77.5376 229.195C77.5376 228.844 77.4242 228.589 77.1976 228.43C76.9709 228.26 76.6139 228.175 76.1266 228.175H73.8486V230.198H76.0756ZM87.3818 222.718C88.2318 222.718 89.0024 222.916 89.6938 223.313C90.3964 223.698 90.9461 224.248 91.3428 224.962C91.7394 225.665 91.9378 226.486 91.9378 227.427C91.9378 228.368 91.7394 229.195 91.3428 229.909C90.9461 230.612 90.3964 231.161 89.6938 231.558C89.0024 231.943 88.2318 232.136 87.3818 232.136C86.2144 232.136 85.2964 231.768 84.6278 231.031V235.298H81.9758V222.854H84.5088V223.908C85.1661 223.115 86.1238 222.718 87.3818 222.718ZM86.9228 229.96C87.6028 229.96 88.1581 229.733 88.5888 229.28C89.0308 228.815 89.2518 228.198 89.2518 227.427C89.2518 226.656 89.0308 226.044 88.5888 225.591C88.1581 225.126 87.6028 224.894 86.9228 224.894C86.2428 224.894 85.6818 225.126 85.2398 225.591C84.8091 226.044 84.5938 226.656 84.5938 227.427C84.5938 228.198 84.8091 228.815 85.2398 229.28C85.6818 229.733 86.2428 229.96 86.9228 229.96ZM102.687 227.461C102.687 227.495 102.67 227.733 102.636 228.175H95.7175C95.8422 228.742 96.1368 229.189 96.6015 229.518C97.0662 229.847 97.6442 230.011 98.3355 230.011C98.8115 230.011 99.2308 229.943 99.5935 229.807C99.9675 229.66 100.313 229.433 100.63 229.127L102.041 230.657C101.18 231.643 99.9222 232.136 98.2675 232.136C97.2362 232.136 96.3238 231.938 95.5305 231.541C94.7372 231.133 94.1252 230.572 93.6945 229.858C93.2638 229.144 93.0485 228.334 93.0485 227.427C93.0485 226.532 93.2582 225.727 93.6775 225.013C94.1082 224.288 94.6918 223.727 95.4285 223.33C96.1765 222.922 97.0095 222.718 97.9275 222.718C98.8228 222.718 99.6332 222.911 100.358 223.296C101.084 223.681 101.65 224.237 102.058 224.962C102.478 225.676 102.687 226.509 102.687 227.461ZM97.9445 224.724C97.3438 224.724 96.8395 224.894 96.4315 225.234C96.0235 225.574 95.7742 226.039 95.6835 226.628H100.188C100.098 226.05 99.8485 225.591 99.4405 225.251C99.0325 224.9 98.5338 224.724 97.9445 224.724ZM113.645 232V226.526L110.908 231.116H109.786L107.117 226.509V232H104.72V222.854H107.491L110.415 228.141L113.526 222.854H116.008L116.042 232H113.645ZM127.474 227.461C127.474 227.495 127.457 227.733 127.423 228.175H120.504C120.628 228.742 120.923 229.189 121.388 229.518C121.852 229.847 122.43 230.011 123.122 230.011C123.598 230.011 124.017 229.943 124.38 229.807C124.754 229.66 125.099 229.433 125.417 229.127L126.828 230.657C125.966 231.643 124.708 232.136 123.054 232.136C122.022 232.136 121.11 231.938 120.317 231.541C119.523 231.133 118.911 230.572 118.481 229.858C118.05 229.144 117.835 228.334 117.835 227.427C117.835 226.532 118.044 225.727 118.464 225.013C118.894 224.288 119.478 223.727 120.215 223.33C120.963 222.922 121.796 222.718 122.714 222.718C123.609 222.718 124.419 222.911 125.145 223.296C125.87 223.681 126.437 224.237 126.845 224.962C127.264 225.676 127.474 226.509 127.474 227.461ZM122.731 224.724C122.13 224.724 121.626 224.894 121.218 225.234C120.81 225.574 120.56 226.039 120.47 226.628H124.975C124.884 226.05 124.635 225.591 124.227 225.251C123.819 224.9 123.32 224.724 122.731 224.724ZM129.506 222.854H132.141V226.424H136.119V222.854H138.771V232H136.119V228.583H132.141V232H129.506V222.854ZM141.31 222.854H143.945V226.424H147.923V222.854H150.575V232H147.923V228.583H143.945V232H141.31V222.854ZM157.925 225.778C159.115 225.789 160.016 226.056 160.628 226.577C161.24 227.098 161.546 227.846 161.546 228.821C161.546 229.841 161.2 230.629 160.509 231.184C159.818 231.739 158.837 232.017 157.568 232.017L153.114 232V222.854H155.749V225.778H157.925ZM162.532 222.854H165.167V232H162.532V222.854ZM157.33 230.13C157.84 230.141 158.231 230.034 158.503 229.807C158.775 229.58 158.911 229.24 158.911 228.787C158.911 228.345 158.775 228.022 158.503 227.818C158.242 227.614 157.851 227.506 157.33 227.495L155.749 227.478V230.13H157.33ZM176.614 227.461C176.614 227.495 176.597 227.733 176.563 228.175H169.644C169.769 228.742 170.064 229.189 170.528 229.518C170.993 229.847 171.571 230.011 172.262 230.011C172.738 230.011 173.158 229.943 173.52 229.807C173.894 229.66 174.24 229.433 174.557 229.127L175.968 230.657C175.107 231.643 173.849 232.136 172.194 232.136C171.163 232.136 170.251 231.938 169.457 231.541C168.664 231.133 168.052 230.572 167.621 229.858C167.191 229.144 166.975 228.334 166.975 227.427C166.975 226.532 167.185 225.727 167.604 225.013C168.035 224.288 168.619 223.727 169.355 223.33C170.103 222.922 170.936 222.718 171.854 222.718C172.75 222.718 173.56 222.911 174.285 223.296C175.011 223.681 175.577 224.237 175.985 224.962C176.405 225.676 176.614 226.509 176.614 227.461ZM171.871 224.724C171.271 224.724 170.766 224.894 170.358 225.234C169.95 225.574 169.701 226.039 169.61 226.628H174.115C174.025 226.05 173.775 225.591 173.367 225.251C172.959 224.9 172.461 224.724 171.871 224.724ZM52.559 253.136C51.5957 253.136 50.7287 252.938 49.958 252.541C49.1987 252.133 48.6037 251.572 48.173 250.858C47.7423 250.144 47.527 249.334 47.527 248.427C47.527 247.52 47.7423 246.71 48.173 245.996C48.6037 245.282 49.1987 244.727 49.958 244.33C50.7287 243.922 51.5957 243.718 52.559 243.718C53.5223 243.718 54.3837 243.922 55.143 244.33C55.9023 244.727 56.4973 245.282 56.928 245.996C57.3587 246.71 57.574 247.52 57.574 248.427C57.574 249.334 57.3587 250.144 56.928 250.858C56.4973 251.572 55.9023 252.133 55.143 252.541C54.3837 252.938 53.5223 253.136 52.559 253.136ZM52.559 250.96C53.239 250.96 53.7943 250.733 54.225 250.28C54.667 249.815 54.888 249.198 54.888 248.427C54.888 247.656 54.667 247.044 54.225 246.591C53.7943 246.126 53.239 245.894 52.559 245.894C51.879 245.894 51.318 246.126 50.876 246.591C50.434 247.044 50.213 247.656 50.213 248.427C50.213 249.198 50.434 249.815 50.876 250.28C51.318 250.733 51.879 250.96 52.559 250.96ZM64.685 244.483C65.5577 244.483 66.3227 244.664 66.98 245.027C67.6374 245.378 68.1417 245.877 68.493 246.523C68.8557 247.169 69.037 247.917 69.037 248.767C69.037 249.64 68.8217 250.416 68.391 251.096C67.9717 251.765 67.3824 252.286 66.623 252.66C65.8637 253.023 65.0024 253.204 64.039 253.204C62.441 253.204 61.183 252.694 60.265 251.674C59.3584 250.643 58.905 249.135 58.905 247.152C58.905 245.316 59.3017 243.854 60.095 242.766C60.8997 241.667 62.1294 240.947 63.784 240.607L68.136 239.74L68.493 242.018L64.651 242.783C63.6084 242.987 62.832 243.327 62.322 243.803C61.8234 244.279 61.5287 244.953 61.438 245.826C61.8347 245.395 62.3107 245.067 62.866 244.84C63.4214 244.602 64.0277 244.483 64.685 244.483ZM64.056 251.147C64.736 251.147 65.28 250.926 65.688 250.484C66.1074 250.042 66.317 249.481 66.317 248.801C66.317 248.11 66.1074 247.56 65.688 247.152C65.28 246.744 64.736 246.54 64.056 246.54C63.3647 246.54 62.8094 246.744 62.39 247.152C61.9707 247.56 61.761 248.11 61.761 248.801C61.761 249.492 61.9764 250.059 62.407 250.501C62.8377 250.932 63.3874 251.147 64.056 251.147ZM75.1205 253.136C74.1572 253.136 73.2902 252.938 72.5195 252.541C71.7602 252.133 71.1652 251.572 70.7345 250.858C70.3039 250.144 70.0885 249.334 70.0885 248.427C70.0885 247.52 70.3039 246.71 70.7345 245.996C71.1652 245.282 71.7602 244.727 72.5195 244.33C73.2902 243.922 74.1572 243.718 75.1205 243.718C76.0839 243.718 76.9452 243.922 77.7045 244.33C78.4639 244.727 79.0589 245.282 79.4895 245.996C79.9202 246.71 80.1355 247.52 80.1355 248.427C80.1355 249.334 79.9202 250.144 79.4895 250.858C79.0589 251.572 78.4639 252.133 77.7045 252.541C76.9452 252.938 76.0839 253.136 75.1205 253.136ZM75.1205 250.96C75.8005 250.96 76.3559 250.733 76.7865 250.28C77.2285 249.815 77.4495 249.198 77.4495 248.427C77.4495 247.656 77.2285 247.044 76.7865 246.591C76.3559 246.126 75.8005 245.894 75.1205 245.894C74.4405 245.894 73.8795 246.126 73.4375 246.591C72.9955 247.044 72.7745 247.656 72.7745 248.427C72.7745 249.198 72.9955 249.815 73.4375 250.28C73.8795 250.733 74.4405 250.96 75.1205 250.96ZM87.3486 243.718C88.1986 243.718 88.9692 243.916 89.6606 244.313C90.3632 244.698 90.9129 245.248 91.3096 245.962C91.7062 246.665 91.9046 247.486 91.9046 248.427C91.9046 249.368 91.7062 250.195 91.3096 250.909C90.9129 251.612 90.3632 252.161 89.6606 252.558C88.9692 252.943 88.1986 253.136 87.3486 253.136C86.1812 253.136 85.2632 252.768 84.5946 252.031V256.298H81.9426V243.854H84.4756V244.908C85.1329 244.115 86.0906 243.718 87.3486 243.718ZM86.8896 250.96C87.5696 250.96 88.1249 250.733 88.5556 250.28C88.9976 249.815 89.2186 249.198 89.2186 248.427C89.2186 247.656 88.9976 247.044 88.5556 246.591C88.1249 246.126 87.5696 245.894 86.8896 245.894C86.2096 245.894 85.6486 246.126 85.2066 246.591C84.7759 247.044 84.5606 247.656 84.5606 248.427C84.5606 249.198 84.7759 249.815 85.2066 250.28C85.6486 250.733 86.2096 250.96 86.8896 250.96ZM102.677 243.854L98.5463 253.561C98.1269 254.615 97.6056 255.357 96.9823 255.788C96.3703 256.219 95.6279 256.434 94.7553 256.434C94.2793 256.434 93.8089 256.36 93.3443 256.213C92.8796 256.066 92.4999 255.862 92.2053 255.601L93.1743 253.714C93.3783 253.895 93.6106 254.037 93.8713 254.139C94.1433 254.241 94.4096 254.292 94.6703 254.292C95.0329 254.292 95.3276 254.201 95.5543 254.02C95.7809 253.85 95.9849 253.561 96.1663 253.153L96.2003 253.068L92.2393 243.854H94.9763L97.5433 250.059L100.127 243.854H102.677ZM113.56 250.824V254.972H111.095V253H104.669V254.972H102.204V250.824H102.578C103.145 250.813 103.536 250.478 103.751 249.821C103.967 249.164 104.103 248.229 104.159 247.016L104.278 243.854H112.251V250.824H113.56ZM106.556 247.203C106.522 248.132 106.449 248.892 106.335 249.481C106.233 250.07 106.035 250.518 105.74 250.824H109.599V246.03H106.607L106.556 247.203ZM119.513 253.136C118.55 253.136 117.683 252.938 116.912 252.541C116.153 252.133 115.558 251.572 115.127 250.858C114.696 250.144 114.481 249.334 114.481 248.427C114.481 247.52 114.696 246.71 115.127 245.996C115.558 245.282 116.153 244.727 116.912 244.33C117.683 243.922 118.55 243.718 119.513 243.718C120.476 243.718 121.338 243.922 122.097 244.33C122.856 244.727 123.451 245.282 123.882 245.996C124.313 246.71 124.528 247.52 124.528 248.427C124.528 249.334 124.313 250.144 123.882 250.858C123.451 251.572 122.856 252.133 122.097 252.541C121.338 252.938 120.476 253.136 119.513 253.136ZM119.513 250.96C120.193 250.96 120.748 250.733 121.179 250.28C121.621 249.815 121.842 249.198 121.842 248.427C121.842 247.656 121.621 247.044 121.179 246.591C120.748 246.126 120.193 245.894 119.513 245.894C118.833 245.894 118.272 246.126 117.83 246.591C117.388 247.044 117.167 247.656 117.167 248.427C117.167 249.198 117.388 249.815 117.83 250.28C118.272 250.733 118.833 250.96 119.513 250.96ZM133.339 248.223C134.416 248.586 134.954 249.311 134.954 250.399C134.954 251.226 134.642 251.867 134.019 252.32C133.396 252.773 132.466 253 131.231 253H126.352V243.854H131.027C132.172 243.854 133.067 244.064 133.713 244.483C134.359 244.891 134.682 245.469 134.682 246.217C134.682 246.67 134.563 247.073 134.325 247.424C134.098 247.764 133.77 248.03 133.339 248.223ZM128.783 247.611H130.789C131.718 247.611 132.183 247.282 132.183 246.625C132.183 245.979 131.718 245.656 130.789 245.656H128.783V247.611ZM131.01 251.198C131.985 251.198 132.472 250.864 132.472 250.195C132.472 249.844 132.359 249.589 132.132 249.43C131.905 249.26 131.548 249.175 131.061 249.175H128.783V251.198H131.01ZM140.48 243.718C141.897 243.718 142.985 244.058 143.744 244.738C144.504 245.407 144.883 246.421 144.883 247.781V253H142.401V251.861C141.903 252.711 140.973 253.136 139.613 253.136C138.911 253.136 138.299 253.017 137.777 252.779C137.267 252.541 136.876 252.212 136.604 251.793C136.332 251.374 136.196 250.898 136.196 250.365C136.196 249.515 136.514 248.846 137.148 248.359C137.794 247.872 138.786 247.628 140.123 247.628H142.231C142.231 247.05 142.056 246.608 141.704 246.302C141.353 245.985 140.826 245.826 140.123 245.826C139.636 245.826 139.154 245.905 138.678 246.064C138.214 246.211 137.817 246.415 137.488 246.676L136.536 244.823C137.035 244.472 137.63 244.2 138.321 244.007C139.024 243.814 139.744 243.718 140.48 243.718ZM140.276 251.351C140.73 251.351 141.132 251.249 141.483 251.045C141.835 250.83 142.084 250.518 142.231 250.11V249.175H140.412C139.324 249.175 138.78 249.532 138.78 250.246C138.78 250.586 138.911 250.858 139.171 251.062C139.443 251.255 139.812 251.351 140.276 251.351ZM147.187 243.854H149.822V247.424H153.8V243.854H156.452V253H153.8V249.583H149.822V253H147.187V243.854ZM158.991 243.854H161.626V249.294L166.08 243.854H168.511V253H165.876V247.56L161.439 253H158.991V243.854ZM179.951 248.461C179.951 248.495 179.934 248.733 179.9 249.175H172.981C173.106 249.742 173.4 250.189 173.865 250.518C174.33 250.847 174.908 251.011 175.599 251.011C176.075 251.011 176.494 250.943 176.857 250.807C177.231 250.66 177.577 250.433 177.894 250.127L179.305 251.657C178.444 252.643 177.186 253.136 175.531 253.136C174.5 253.136 173.587 252.938 172.794 252.541C172.001 252.133 171.389 251.572 170.958 250.858C170.527 250.144 170.312 249.334 170.312 248.427C170.312 247.532 170.522 246.727 170.941 246.013C171.372 245.288 171.955 244.727 172.692 244.33C173.44 243.922 174.273 243.718 175.191 243.718C176.086 243.718 176.897 243.911 177.622 244.296C178.347 244.681 178.914 245.237 179.322 245.962C179.741 246.676 179.951 247.509 179.951 248.461ZM175.208 245.724C174.607 245.724 174.103 245.894 173.695 246.234C173.287 246.574 173.038 247.039 172.947 247.628H177.452C177.361 247.05 177.112 246.591 176.704 246.251C176.296 245.9 175.797 245.724 175.208 245.724Z" fill="#242426"/>
<g filter="url(#filter0_d_1_327)">
<circle cx="115" cy="100" r="95" fill="white"/>
</g>
<mask id="mask0_1_327" style="mask-type:alpha" maskUnits="userSpaceOnUse" x="20" y="5" width="190" height="190">
<circle cx="115" cy="100" r="95" fill="#32D74B"/>
</mask>
<g mask="url(#mask0_1_327)">
<path d="M94 171C72.4 157.4 42 172 29.5 181C32.5 186.833 39.2 198.6 42 199C45.5 199.5 59.5 205 75.5 212.5C91.5 220 150.5 218 154 217C157.5 216 229 196 201 176.5C178.6 160.9 160.5 156.024 142 171C135 176.667 115.6 184.6 94 171Z" fill="#32D74B"/>
</g>
<path fill-rule="evenodd" clip-rule="evenodd" d="M79.1667 78.5C79.1667 75.6489 80.2993 72.9146 82.3153 70.8986C84.3313 68.8826 87.0656 67.75 89.9167 67.75H140.083C142.934 67.75 145.669 68.8826 147.685 70.8986C149.701 72.9146 150.833 75.6489 150.833 78.5V107.167C150.833 110.018 149.701 112.752 147.685 114.768C145.669 116.784 142.934 117.917 140.083 117.917H125.75V125.083H129.333C130.284 125.083 131.195 125.461 131.867 126.133C132.539 126.805 132.917 127.716 132.917 128.667C132.917 129.617 132.539 130.528 131.867 131.2C131.195 131.872 130.284 132.25 129.333 132.25H100.667C99.7163 132.25 98.8049 131.872 98.1329 131.2C97.4609 130.528 97.0834 129.617 97.0834 128.667C97.0834 127.716 97.4609 126.805 98.1329 126.133C98.8049 125.461 99.7163 125.083 100.667 125.083H104.25V117.917H89.9167C87.0656 117.917 84.3313 116.784 82.3153 114.768C80.2993 112.752 79.1667 110.018 79.1667 107.167V78.5ZM118.583 117.917H111.417V125.083H118.583V117.917Z" fill="#242426"/>
<defs>
<filter id="filter0_d_1_327" x="0" y="0" width="230" height="230" filterUnits="userSpaceOnUse" color-interpolation-filters="sRGB">
<feFlood flood-opacity="0" result="BackgroundImageFix"/>
<feColorMatrix in="SourceAlpha" type="matrix" values="0 0 0 0 0 0 0 0 0 0 0 0 0 0 0 0 0 0 127 0" result="hardAlpha"/>
<feOffset dy="15"/>
<feGaussianBlur stdDeviation="10"/>
<feComposite in2="hardAlpha" operator="out"/>
<feColorMatrix type="matrix" values="0 0 0 0 0 0 0 0 0 0 0 0 0 0 0 0 0 0 0.05 0"/>
<feBlend mode="normal" in2="BackgroundImageFix" result="effect1_dropShadow_1_327"/>
<feBlend mode="normal" in="SourceGraphic" in2="effect1_dropShadow_1_327" result="shape"/>
</filter>
</defs>
</svg>
