<svg width="230" height="257" viewBox="0 0 230 257" fill="none" xmlns="http://www.w3.org/2000/svg">
<path d="M35.479 220.1H38.216V227.852L43.894 220.1H46.478V232H43.758V224.265L38.08 232H35.479V220.1ZM49.2369 222.854H51.8719V226.424H55.8499V222.854H58.5019V232H55.8499V228.583H51.8719V232H49.2369V222.854ZM71.2916 229.824V233.972H68.8266V232H62.4006V233.972H59.9356V229.824H60.3096C60.8763 229.813 61.2673 229.478 61.4826 228.821C61.698 228.164 61.834 227.229 61.8906 226.016L62.0096 222.854H69.9826V229.824H71.2916ZM64.2876 226.203C64.2536 227.132 64.18 227.892 64.0666 228.481C63.9646 229.07 63.7663 229.518 63.4716 229.824H67.3306V225.03H64.3386L64.2876 226.203ZM72.9605 222.854H75.5955V228.294L80.0495 222.854H82.4805V232H79.8455V226.56L75.4085 232H72.9605V222.854ZM92.0169 227.223C93.0935 227.586 93.6319 228.311 93.6319 229.399C93.6319 230.226 93.3202 230.867 92.6969 231.32C92.0735 231.773 91.1442 232 89.9089 232H85.0299V222.854H89.7049C90.8496 222.854 91.7449 223.064 92.3909 223.483C93.0369 223.891 93.3599 224.469 93.3599 225.217C93.3599 225.67 93.2409 226.073 93.0029 226.424C92.7762 226.764 92.4476 227.03 92.0169 227.223ZM87.4609 226.611H89.4669C90.3962 226.611 90.8609 226.282 90.8609 225.625C90.8609 224.979 90.3962 224.656 89.4669 224.656H87.4609V226.611ZM89.6879 230.198C90.6625 230.198 91.1499 229.864 91.1499 229.195C91.1499 228.844 91.0365 228.589 90.8099 228.43C90.5832 228.26 90.2262 228.175 89.7389 228.175H87.4609V230.198H89.6879ZM95.6051 222.854H98.2401V228.294L102.694 222.854H105.125V232H102.49V226.56L98.0531 232H95.6051V222.854ZM117.925 229.824V233.972H115.46V232H109.034V233.972H106.569V229.824H106.943C107.51 229.813 107.901 229.478 108.116 228.821C108.332 228.164 108.468 227.229 108.524 226.016L108.643 222.854H116.616V229.824H117.925ZM110.921 226.203C110.887 227.132 110.814 227.892 110.7 228.481C110.598 229.07 110.4 229.518 110.105 229.824H113.964V225.03H110.972L110.921 226.203ZM128.757 222.854L124.626 232.561C124.207 233.615 123.686 234.357 123.062 234.788C122.45 235.219 121.708 235.434 120.835 235.434C120.359 235.434 119.889 235.36 119.424 235.213C118.96 235.066 118.58 234.862 118.285 234.601L119.254 232.714C119.458 232.895 119.691 233.037 119.951 233.139C120.223 233.241 120.49 233.292 120.75 233.292C121.113 233.292 121.408 233.201 121.634 233.02C121.861 232.85 122.065 232.561 122.246 232.153L122.28 232.068L118.319 222.854H121.056L123.623 229.059L126.207 222.854H128.757ZM133.291 222.718C134.708 222.718 135.796 223.058 136.555 223.738C137.314 224.407 137.694 225.421 137.694 226.781V232H135.212V230.861C134.713 231.711 133.784 232.136 132.424 232.136C131.721 232.136 131.109 232.017 130.588 231.779C130.078 231.541 129.687 231.212 129.415 230.793C129.143 230.374 129.007 229.898 129.007 229.365C129.007 228.515 129.324 227.846 129.959 227.359C130.605 226.872 131.597 226.628 132.934 226.628H135.042C135.042 226.05 134.866 225.608 134.515 225.302C134.164 224.985 133.637 224.826 132.934 224.826C132.447 224.826 131.965 224.905 131.489 225.064C131.024 225.211 130.628 225.415 130.299 225.676L129.347 223.823C129.846 223.472 130.441 223.2 131.132 223.007C131.835 222.814 132.554 222.718 133.291 222.718ZM133.087 230.351C133.54 230.351 133.943 230.249 134.294 230.045C134.645 229.83 134.895 229.518 135.042 229.11V228.175H133.223C132.135 228.175 131.591 228.532 131.591 229.246C131.591 229.586 131.721 229.858 131.982 230.062C132.254 230.255 132.622 230.351 133.087 230.351ZM148.77 222.854V232H146.118V225.03H143.228L143.143 226.645C143.097 227.846 142.984 228.844 142.803 229.637C142.621 230.43 142.327 231.054 141.919 231.507C141.511 231.96 140.944 232.187 140.219 232.187C139.833 232.187 139.374 232.119 138.842 231.983L138.978 229.807C139.159 229.83 139.289 229.841 139.369 229.841C139.765 229.841 140.06 229.699 140.253 229.416C140.457 229.121 140.593 228.753 140.661 228.311C140.729 227.858 140.78 227.263 140.814 226.526L140.95 222.854H148.77ZM156.267 225.778C157.457 225.789 158.369 226.061 159.004 226.594C159.639 227.115 159.956 227.858 159.956 228.821C159.956 229.83 159.599 230.617 158.885 231.184C158.182 231.739 157.191 232.017 155.91 232.017L151.32 232V222.854H153.955V225.778H156.267ZM155.672 230.13C156.182 230.141 156.573 230.034 156.845 229.807C157.117 229.58 157.253 229.24 157.253 228.787C157.253 228.345 157.117 228.022 156.845 227.818C156.584 227.614 156.193 227.506 155.672 227.495L153.955 227.478V230.13H155.672ZM161.613 222.854H164.248V226.424H168.226V222.854H170.878V232H168.226V228.583H164.248V232H161.613V222.854ZM177.701 232.136C176.737 232.136 175.87 231.938 175.1 231.541C174.34 231.133 173.745 230.572 173.315 229.858C172.884 229.144 172.669 228.334 172.669 227.427C172.669 226.52 172.884 225.71 173.315 224.996C173.745 224.282 174.34 223.727 175.1 223.33C175.87 222.922 176.737 222.718 177.701 222.718C178.664 222.718 179.525 222.922 180.285 223.33C181.044 223.727 181.639 224.282 182.07 224.996C182.5 225.71 182.716 226.52 182.716 227.427C182.716 228.334 182.5 229.144 182.07 229.858C181.639 230.572 181.044 231.133 180.285 231.541C179.525 231.938 178.664 232.136 177.701 232.136ZM177.701 229.96C178.381 229.96 178.936 229.733 179.367 229.28C179.809 228.815 180.03 228.198 180.03 227.427C180.03 226.656 179.809 226.044 179.367 225.591C178.936 225.126 178.381 224.894 177.701 224.894C177.021 224.894 176.46 225.126 176.018 225.591C175.576 226.044 175.355 226.656 175.355 227.427C175.355 228.198 175.576 228.815 176.018 229.28C176.46 229.733 177.021 229.96 177.701 229.96ZM193.431 227.461C193.431 227.495 193.414 227.733 193.38 228.175H186.461C186.585 228.742 186.88 229.189 187.345 229.518C187.809 229.847 188.387 230.011 189.079 230.011C189.555 230.011 189.974 229.943 190.337 229.807C190.711 229.66 191.056 229.433 191.374 229.127L192.785 230.657C191.923 231.643 190.665 232.136 189.011 232.136C187.979 232.136 187.067 231.938 186.274 231.541C185.48 231.133 184.868 230.572 184.438 229.858C184.007 229.144 183.792 228.334 183.792 227.427C183.792 226.532 184.001 225.727 184.421 225.013C184.851 224.288 185.435 223.727 186.172 223.33C186.92 222.922 187.753 222.718 188.671 222.718C189.566 222.718 190.376 222.911 191.102 223.296C191.827 223.681 192.394 224.237 192.802 224.962C193.221 225.676 193.431 226.509 193.431 227.461ZM188.688 224.724C188.087 224.724 187.583 224.894 187.175 225.234C186.767 225.574 186.517 226.039 186.427 226.628H190.932C190.841 226.05 190.592 225.591 190.184 225.251C189.776 224.9 189.277 224.724 188.688 224.724ZM39.559 253.136C38.5957 253.136 37.7287 252.938 36.958 252.541C36.1987 252.133 35.6037 251.572 35.173 250.858C34.7423 250.144 34.527 249.334 34.527 248.427C34.527 247.52 34.7423 246.71 35.173 245.996C35.6037 245.282 36.1987 244.727 36.958 244.33C37.7287 243.922 38.5957 243.718 39.559 243.718C40.5223 243.718 41.3837 243.922 42.143 244.33C42.9023 244.727 43.4973 245.282 43.928 245.996C44.3587 246.71 44.574 247.52 44.574 248.427C44.574 249.334 44.3587 250.144 43.928 250.858C43.4973 251.572 42.9023 252.133 42.143 252.541C41.3837 252.938 40.5223 253.136 39.559 253.136ZM39.559 250.96C40.239 250.96 40.7943 250.733 41.225 250.28C41.667 249.815 41.888 249.198 41.888 248.427C41.888 247.656 41.667 247.044 41.225 246.591C40.7943 246.126 40.239 245.894 39.559 245.894C38.879 245.894 38.318 246.126 37.876 246.591C37.434 247.044 37.213 247.656 37.213 248.427C37.213 249.198 37.434 249.815 37.876 250.28C38.318 250.733 38.879 250.96 39.559 250.96ZM51.685 244.483C52.5577 244.483 53.3227 244.664 53.98 245.027C54.6374 245.378 55.1417 245.877 55.493 246.523C55.8557 247.169 56.037 247.917 56.037 248.767C56.037 249.64 55.8217 250.416 55.391 251.096C54.9717 251.765 54.3824 252.286 53.623 252.66C52.8637 253.023 52.0024 253.204 51.039 253.204C49.441 253.204 48.183 252.694 47.265 251.674C46.3584 250.643 45.905 249.135 45.905 247.152C45.905 245.316 46.3017 243.854 47.095 242.766C47.8997 241.667 49.1294 240.947 50.784 240.607L55.136 239.74L55.493 242.018L51.651 242.783C50.6084 242.987 49.832 243.327 49.322 243.803C48.8234 244.279 48.5287 244.953 48.438 245.826C48.8347 245.395 49.3107 245.067 49.866 244.84C50.4214 244.602 51.0277 244.483 51.685 244.483ZM51.056 251.147C51.736 251.147 52.28 250.926 52.688 250.484C53.1074 250.042 53.317 249.481 53.317 248.801C53.317 248.11 53.1074 247.56 52.688 247.152C52.28 246.744 51.736 246.54 51.056 246.54C50.3647 246.54 49.8094 246.744 49.39 247.152C48.9707 247.56 48.761 248.11 48.761 248.801C48.761 249.492 48.9764 250.059 49.407 250.501C49.8377 250.932 50.3874 251.147 51.056 251.147ZM66.7505 243.854L62.6195 253.561C62.2002 254.615 61.6788 255.357 61.0555 255.788C60.4435 256.219 59.7012 256.434 58.8285 256.434C58.3525 256.434 57.8822 256.36 57.4175 256.213C56.9528 256.066 56.5732 255.862 56.2785 255.601L57.2475 253.714C57.4515 253.895 57.6838 254.037 57.9445 254.139C58.2165 254.241 58.4828 254.292 58.7435 254.292C59.1062 254.292 59.4008 254.201 59.6275 254.02C59.8542 253.85 60.0582 253.561 60.2395 253.153L60.2735 253.068L56.3125 243.854H59.0495L61.6165 250.059L64.2005 243.854H66.7505ZM76.2579 243.854V253H73.6059V249.6C72.8352 249.985 71.9852 250.178 71.0559 250.178C69.8205 250.178 68.8855 249.9 68.2509 249.345C67.6275 248.778 67.3159 247.906 67.3159 246.727V243.854H69.9679V246.557C69.9679 247.112 70.1095 247.515 70.3929 247.764C70.6875 248.013 71.1069 248.138 71.6509 248.138C72.3422 248.138 72.9939 247.991 73.6059 247.696V243.854H76.2579ZM87.6953 248.461C87.6953 248.495 87.6783 248.733 87.6443 249.175H80.7253C80.85 249.742 81.1446 250.189 81.6093 250.518C82.074 250.847 82.652 251.011 83.3433 251.011C83.8193 251.011 84.2386 250.943 84.6013 250.807C84.9753 250.66 85.321 250.433 85.6383 250.127L87.0493 251.657C86.188 252.643 84.93 253.136 83.2753 253.136C82.244 253.136 81.3316 252.938 80.5383 252.541C79.745 252.133 79.133 251.572 78.7023 250.858C78.2716 250.144 78.0563 249.334 78.0563 248.427C78.0563 247.532 78.266 246.727 78.6853 246.013C79.116 245.288 79.6996 244.727 80.4363 244.33C81.1843 243.922 82.0173 243.718 82.9353 243.718C83.8306 243.718 84.641 243.911 85.3663 244.296C86.0916 244.681 86.6583 245.237 87.0663 245.962C87.4856 246.676 87.6953 247.509 87.6953 248.461ZM82.9523 245.724C82.3516 245.724 81.8473 245.894 81.4393 246.234C81.0313 246.574 80.782 247.039 80.6913 247.628H85.1963C85.1056 247.05 84.8563 246.591 84.4483 246.251C84.0403 245.9 83.5416 245.724 82.9523 245.724ZM89.7281 243.854H92.3631V247.424H96.3411V243.854H98.9931V253H96.3411V249.583H92.3631V253H89.7281V243.854ZM101.532 243.854H104.167V249.294L108.621 243.854H111.052V253H108.417V247.56L103.98 253H101.532V243.854ZM122.492 248.461C122.492 248.495 122.475 248.733 122.441 249.175H115.522C115.647 249.742 115.942 250.189 116.406 250.518C116.871 250.847 117.449 251.011 118.14 251.011C118.616 251.011 119.036 250.943 119.398 250.807C119.772 250.66 120.118 250.433 120.435 250.127L121.846 251.657C120.985 252.643 119.727 253.136 118.072 253.136C117.041 253.136 116.129 252.938 115.335 252.541C114.542 252.133 113.93 251.572 113.499 250.858C113.069 250.144 112.853 249.334 112.853 248.427C112.853 247.532 113.063 246.727 113.482 246.013C113.913 245.288 114.497 244.727 115.233 244.33C115.981 243.922 116.814 243.718 117.732 243.718C118.628 243.718 119.438 243.911 120.163 244.296C120.889 244.681 121.455 245.237 121.863 245.962C122.283 246.676 122.492 247.509 122.492 248.461ZM117.749 245.724C117.149 245.724 116.644 245.894 116.236 246.234C115.828 246.574 115.579 247.039 115.488 247.628H119.993C119.903 247.05 119.653 246.591 119.245 246.251C118.837 245.9 118.339 245.724 117.749 245.724Z" fill="#242426"/>
<g filter="url(#filter0_d_1_336)">
<circle cx="115" cy="100" r="95" fill="white"/>
</g>
<mask id="mask0_1_336" style="mask-type:alpha" maskUnits="userSpaceOnUse" x="20" y="5" width="190" height="190">
<circle cx="115" cy="100" r="95" fill="#32D74B"/>
</mask>
<g mask="url(#mask0_1_336)">
<path d="M94 171C72.4 157.4 42 172 29.5 181C32.5 186.833 39.2 198.6 42 199C45.5 199.5 59.5 205 75.5 212.5C91.5 220 150.5 218 154 217C157.5 216 229 196 201 176.5C178.6 160.9 160.5 156.024 142 171C135 176.667 115.6 184.6 94 171Z" fill="#32D74B"/>
</g>
<path d="M115 73.3333C118.536 73.3333 121.928 74.7381 124.428 77.2386C126.929 79.739 128.333 83.1304 128.333 86.6666C128.333 90.2029 126.929 93.5943 124.428 96.0947C121.928 98.5952 118.536 100 115 100C111.464 100 108.072 98.5952 105.572 96.0947C103.071 93.5943 101.667 90.2029 101.667 86.6666C101.667 83.1304 103.071 79.739 105.572 77.2386C108.072 74.7381 111.464 73.3333 115 73.3333ZM115 106.667C129.733 106.667 141.667 112.633 141.667 120V126.667H88.3333V120C88.3333 112.633 100.267 106.667 115 106.667Z" fill="#242426"/>
<defs>
<filter id="filter0_d_1_336" x="0" y="0" width="230" height="230" filterUnits="userSpaceOnUse" color-interpolation-filters="sRGB">
<feFlood flood-opacity="0" result="BackgroundImageFix"/>
<feColorMatrix in="SourceAlpha" type="matrix" values="0 0 0 0 0 0 0 0 0 0 0 0 0 0 0 0 0 0 127 0" result="hardAlpha"/>
<feOffset dy="15"/>
<feGaussianBlur stdDeviation="10"/>
<feComposite in2="hardAlpha" operator="out"/>
<feColorMatrix type="matrix" values="0 0 0 0 0 0 0 0 0 0 0 0 0 0 0 0 0 0 0.05 0"/>
<feBlend mode="normal" in2="BackgroundImageFix" result="effect1_dropShadow_1_336"/>
<feBlend mode="normal" in="SourceGraphic" in2="effect1_dropShadow_1_336" result="shape"/>
</filter>
</defs>
</svg>
