<svg width="236" height="236" viewBox="0 0 236 236" fill="none" xmlns="http://www.w3.org/2000/svg">
<path d="M7.157 232.204C5.92167 232.204 4.80533 231.938 3.808 231.405C2.822 230.872 2.04567 230.141 1.479 229.212C0.923667 228.271 0.646 227.217 0.646 226.05C0.646 224.883 0.923667 223.834 1.479 222.905C2.04567 221.964 2.822 221.228 3.808 220.695C4.80533 220.162 5.92167 219.896 7.157 219.896C8.39233 219.896 9.503 220.162 10.489 220.695C11.475 221.228 12.2513 221.964 12.818 222.905C13.3847 223.834 13.668 224.883 13.668 226.05C13.668 227.217 13.3847 228.271 12.818 229.212C12.2513 230.141 11.475 230.872 10.489 231.405C9.503 231.938 8.39233 232.204 7.157 232.204ZM7.157 229.858C7.85967 229.858 8.49433 229.699 9.061 229.382C9.62767 229.053 10.0697 228.6 10.387 228.022C10.7157 227.444 10.88 226.787 10.88 226.05C10.88 225.313 10.7157 224.656 10.387 224.078C10.0697 223.5 9.62767 223.052 9.061 222.735C8.49433 222.406 7.85967 222.242 7.157 222.242C6.45433 222.242 5.81967 222.406 5.253 222.735C4.68633 223.052 4.23867 223.5 3.91 224.078C3.59267 224.656 3.434 225.313 3.434 226.05C3.434 226.787 3.59267 227.444 3.91 228.022C4.23867 228.6 4.68633 229.053 5.253 229.382C5.81967 229.699 6.45433 229.858 7.157 229.858ZM24.6805 222.854V232H22.0285V225.03H18.2205V232H15.5855V222.854H24.6805ZM32.0342 225.778C33.2242 225.789 34.1252 226.056 34.7372 226.577C35.3492 227.098 35.6552 227.846 35.6552 228.821C35.6552 229.841 35.3096 230.629 34.6182 231.184C33.9269 231.739 32.9466 232.017 31.6772 232.017L27.2232 232V222.854H29.8582V225.778H32.0342ZM36.6412 222.854H39.2762V232H36.6412V222.854ZM31.4392 230.13C31.9492 230.141 32.3402 230.034 32.6122 229.807C32.8842 229.58 33.0202 229.24 33.0202 228.787C33.0202 228.345 32.8842 228.022 32.6122 227.818C32.3516 227.614 31.9606 227.506 31.4392 227.495L29.8582 227.478V230.13H31.4392ZM49.5166 225.03H46.4226V232H43.7876V225.03H40.6936V222.854H49.5166V225.03ZM50.9303 222.854H53.5653V226.424H57.5433V222.854H60.1953V232H57.5433V228.583H53.5653V232H50.9303V222.854ZM67.545 225.778C68.735 225.789 69.636 226.056 70.248 226.577C70.86 227.098 71.166 227.846 71.166 228.821C71.166 229.841 70.8203 230.629 70.129 231.184C69.4377 231.739 68.4573 232.017 67.188 232.017L62.734 232V222.854H65.369V225.778H67.545ZM72.152 222.854H74.787V232H72.152V222.854ZM66.95 230.13C67.46 230.141 67.851 230.034 68.123 229.807C68.395 229.58 68.531 229.24 68.531 228.787C68.531 228.345 68.395 228.022 68.123 227.818C67.8623 227.614 67.4713 227.506 66.95 227.495L65.369 227.478V230.13H66.95ZM86.2344 227.461C86.2344 227.495 86.2174 227.733 86.1834 228.175H79.2644C79.389 228.742 79.6837 229.189 80.1484 229.518C80.613 229.847 81.191 230.011 81.8824 230.011C82.3584 230.011 82.7777 229.943 83.1404 229.807C83.5144 229.66 83.86 229.433 84.1774 229.127L85.5884 230.657C84.727 231.643 83.469 232.136 81.8144 232.136C80.783 232.136 79.8707 231.938 79.0774 231.541C78.284 231.133 77.672 230.572 77.2414 229.858C76.8107 229.144 76.5954 228.334 76.5954 227.427C76.5954 226.532 76.805 225.727 77.2244 225.013C77.655 224.288 78.2387 223.727 78.9754 223.33C79.7234 222.922 80.5564 222.718 81.4744 222.718C82.3697 222.718 83.18 222.911 83.9054 223.296C84.6307 223.681 85.1974 224.237 85.6054 224.962C86.0247 225.676 86.2344 226.509 86.2344 227.461ZM81.4914 224.724C80.8907 224.724 80.3864 224.894 79.9784 225.234C79.5704 225.574 79.321 226.039 79.2304 226.628H83.7354C83.6447 226.05 83.3954 225.591 82.9874 225.251C82.5794 224.9 82.0807 224.724 81.4914 224.724ZM102.177 222.854V232H99.5246V225.03H95.7166V232H93.0816V222.854H102.177ZM110.108 222.718C110.958 222.718 111.729 222.916 112.42 223.313C113.123 223.698 113.673 224.248 114.069 224.962C114.466 225.665 114.664 226.486 114.664 227.427C114.664 228.368 114.466 229.195 114.069 229.909C113.673 230.612 113.123 231.161 112.42 231.558C111.729 231.943 110.958 232.136 110.108 232.136C108.941 232.136 108.023 231.768 107.354 231.031V235.298H104.702V222.854H107.235V223.908C107.893 223.115 108.85 222.718 110.108 222.718ZM109.649 229.96C110.329 229.96 110.885 229.733 111.315 229.28C111.757 228.815 111.978 228.198 111.978 227.427C111.978 226.656 111.757 226.044 111.315 225.591C110.885 225.126 110.329 224.894 109.649 224.894C108.969 224.894 108.408 225.126 107.966 225.591C107.536 226.044 107.32 226.656 107.32 227.427C107.32 228.198 107.536 228.815 107.966 229.28C108.408 229.733 108.969 229.96 109.649 229.96ZM125.414 227.461C125.414 227.495 125.397 227.733 125.363 228.175H118.444C118.569 228.742 118.863 229.189 119.328 229.518C119.793 229.847 120.371 230.011 121.062 230.011C121.538 230.011 121.957 229.943 122.32 229.807C122.694 229.66 123.04 229.433 123.357 229.127L124.768 230.657C123.907 231.643 122.649 232.136 120.994 232.136C119.963 232.136 119.05 231.938 118.257 231.541C117.464 231.133 116.852 230.572 116.421 229.858C115.99 229.144 115.775 228.334 115.775 227.427C115.775 226.532 115.985 225.727 116.404 225.013C116.835 224.288 117.418 223.727 118.155 223.33C118.903 222.922 119.736 222.718 120.654 222.718C121.549 222.718 122.36 222.911 123.085 223.296C123.81 223.681 124.377 224.237 124.785 224.962C125.204 225.676 125.414 226.509 125.414 227.461ZM120.671 224.724C120.07 224.724 119.566 224.894 119.158 225.234C118.75 225.574 118.501 226.039 118.41 226.628H122.915C122.824 226.05 122.575 225.591 122.167 225.251C121.759 224.9 121.26 224.724 120.671 224.724ZM136.542 222.854V232H133.89V225.03H130.082V232H127.447V222.854H136.542ZM143.369 232.136C142.405 232.136 141.538 231.938 140.768 231.541C140.008 231.133 139.413 230.572 138.983 229.858C138.552 229.144 138.337 228.334 138.337 227.427C138.337 226.52 138.552 225.71 138.983 224.996C139.413 224.282 140.008 223.727 140.768 223.33C141.538 222.922 142.405 222.718 143.369 222.718C144.332 222.718 145.193 222.922 145.953 223.33C146.712 223.727 147.307 224.282 147.738 224.996C148.168 225.71 148.384 226.52 148.384 227.427C148.384 228.334 148.168 229.144 147.738 229.858C147.307 230.572 146.712 231.133 145.953 231.541C145.193 231.938 144.332 232.136 143.369 232.136ZM143.369 229.96C144.049 229.96 144.604 229.733 145.035 229.28C145.477 228.815 145.698 228.198 145.698 227.427C145.698 226.656 145.477 226.044 145.035 225.591C144.604 225.126 144.049 224.894 143.369 224.894C142.689 224.894 142.128 225.126 141.686 225.591C141.244 226.044 141.023 226.656 141.023 227.427C141.023 228.198 141.244 228.815 141.686 229.28C142.128 229.733 142.689 229.96 143.369 229.96ZM160.326 229.824V233.972H157.861V232H151.435V233.972H148.97V229.824H149.344C149.91 229.813 150.301 229.478 150.517 228.821C150.732 228.164 150.868 227.229 150.925 226.016L151.044 222.854H159.017V229.824H160.326ZM153.322 226.203C153.288 227.132 153.214 227.892 153.101 228.481C152.999 229.07 152.8 229.518 152.506 229.824H156.365V225.03H153.373L153.322 226.203ZM166.279 232.136C165.315 232.136 164.448 231.938 163.678 231.541C162.918 231.133 162.323 230.572 161.893 229.858C161.462 229.144 161.247 228.334 161.247 227.427C161.247 226.52 161.462 225.71 161.893 224.996C162.323 224.282 162.918 223.727 163.678 223.33C164.448 222.922 165.315 222.718 166.279 222.718C167.242 222.718 168.103 222.922 168.863 223.33C169.622 223.727 170.217 224.282 170.648 224.996C171.078 225.71 171.294 226.52 171.294 227.427C171.294 228.334 171.078 229.144 170.648 229.858C170.217 230.572 169.622 231.133 168.863 231.541C168.103 231.938 167.242 232.136 166.279 232.136ZM166.279 229.96C166.959 229.96 167.514 229.733 167.945 229.28C168.387 228.815 168.608 228.198 168.608 227.427C168.608 226.656 168.387 226.044 167.945 225.591C167.514 225.126 166.959 224.894 166.279 224.894C165.599 224.894 165.038 225.126 164.596 225.591C164.154 226.044 163.933 226.656 163.933 227.427C163.933 228.198 164.154 228.815 164.596 229.28C165.038 229.733 165.599 229.96 166.279 229.96ZM180.105 227.223C181.181 227.586 181.72 228.311 181.72 229.399C181.72 230.226 181.408 230.867 180.785 231.32C180.161 231.773 179.232 232 177.997 232H173.118V222.854H177.793C178.937 222.854 179.833 223.064 180.479 223.483C181.125 223.891 181.448 224.469 181.448 225.217C181.448 225.67 181.329 226.073 181.091 226.424C180.864 226.764 180.535 227.03 180.105 227.223ZM175.549 226.611H177.555C178.484 226.611 178.949 226.282 178.949 225.625C178.949 224.979 178.484 224.656 177.555 224.656H175.549V226.611ZM177.776 230.198C178.75 230.198 179.238 229.864 179.238 229.195C179.238 228.844 179.124 228.589 178.898 228.43C178.671 228.26 178.314 228.175 177.827 228.175H175.549V230.198H177.776ZM187.246 222.718C188.663 222.718 189.751 223.058 190.51 223.738C191.269 224.407 191.649 225.421 191.649 226.781V232H189.167V230.861C188.668 231.711 187.739 232.136 186.379 232.136C185.676 232.136 185.064 232.017 184.543 231.779C184.033 231.541 183.642 231.212 183.37 230.793C183.098 230.374 182.962 229.898 182.962 229.365C182.962 228.515 183.279 227.846 183.914 227.359C184.56 226.872 185.552 226.628 186.889 226.628H188.997C188.997 226.05 188.821 225.608 188.47 225.302C188.119 224.985 187.592 224.826 186.889 224.826C186.402 224.826 185.92 224.905 185.444 225.064C184.979 225.211 184.583 225.415 184.254 225.676L183.302 223.823C183.801 223.472 184.396 223.2 185.087 223.007C185.79 222.814 186.509 222.718 187.246 222.718ZM187.042 230.351C187.495 230.351 187.898 230.249 188.249 230.045C188.6 229.83 188.85 229.518 188.997 229.11V228.175H187.178C186.09 228.175 185.546 228.532 185.546 229.246C185.546 229.586 185.676 229.858 185.937 230.062C186.209 230.255 186.577 230.351 187.042 230.351ZM201.637 225.03H198.543V232H195.908V225.03H192.814V222.854H201.637V225.03ZM211.56 227.461C211.56 227.495 211.543 227.733 211.509 228.175H204.59C204.714 228.742 205.009 229.189 205.474 229.518C205.938 229.847 206.516 230.011 207.208 230.011C207.684 230.011 208.103 229.943 208.466 229.807C208.84 229.66 209.185 229.433 209.503 229.127L210.914 230.657C210.052 231.643 208.794 232.136 207.14 232.136C206.108 232.136 205.196 231.938 204.403 231.541C203.609 231.133 202.997 230.572 202.567 229.858C202.136 229.144 201.921 228.334 201.921 227.427C201.921 226.532 202.13 225.727 202.55 225.013C202.98 224.288 203.564 223.727 204.301 223.33C205.049 222.922 205.882 222.718 206.8 222.718C207.695 222.718 208.505 222.911 209.231 223.296C209.956 223.681 210.523 224.237 210.931 224.962C211.35 225.676 211.56 226.509 211.56 227.461ZM206.817 224.724C206.216 224.724 205.712 224.894 205.304 225.234C204.896 225.574 204.646 226.039 204.556 226.628H209.061C208.97 226.05 208.721 225.591 208.313 225.251C207.905 224.9 207.406 224.724 206.817 224.724ZM222.281 222.854V232H219.629V225.03H216.739L216.654 226.645C216.609 227.846 216.496 228.844 216.314 229.637C216.133 230.43 215.838 231.054 215.43 231.507C215.022 231.96 214.456 232.187 213.73 232.187C213.345 232.187 212.886 232.119 212.353 231.983L212.489 229.807C212.671 229.83 212.801 229.841 212.88 229.841C213.277 229.841 213.572 229.699 213.764 229.416C213.968 229.121 214.104 228.753 214.172 228.311C214.24 227.858 214.291 227.263 214.325 226.526L214.461 222.854H222.281ZM224.832 222.854H227.467V228.294L231.921 222.854H234.352V232H231.717V226.56L227.28 232H224.832V222.854Z" fill="#242426"/>
<g filter="url(#filter0_d_1_312)">
<circle cx="118" cy="100" r="95" fill="white"/>
</g>
<mask id="mask0_1_312" style="mask-type:alpha" maskUnits="userSpaceOnUse" x="23" y="5" width="190" height="190">
<circle cx="118" cy="100" r="95" fill="#32D74B"/>
</mask>
<g mask="url(#mask0_1_312)">
<path d="M97 171C75.4 157.4 45 172 32.5 181C35.5 186.833 42.2 198.6 45 199C48.5 199.5 62.5 205 78.5 212.5C94.5 220 153.5 218 157 217C160.5 216 232 196 204 176.5C181.6 160.9 163.5 156.024 145 171C138 176.667 118.6 184.6 97 171Z" fill="#32D74B"/>
</g>
<path d="M109.516 90C111.532 87.56 114.584 86 118 86C121.416 86 124.468 87.56 126.484 90C127.811 91.6092 128.654 93.5627 128.913 95.6326C129.172 97.7024 128.837 99.8032 127.948 101.69C127.058 103.577 125.65 105.172 123.889 106.289C122.127 107.406 120.084 107.999 117.998 107.999C115.912 107.999 113.869 107.406 112.107 106.289C110.346 105.172 108.938 103.577 108.048 101.69C107.159 99.8032 106.824 97.7024 107.083 95.6326C107.342 93.5627 108.185 91.6092 109.512 90H109.516Z" fill="#242426"/>
<path d="M133 97C133 94.472 132.376 92.088 131.272 90H148C149.591 90 151.117 90.6321 152.243 91.7574C153.368 92.8826 154 94.4087 154 96V98C154 104.348 149.176 110.848 140.74 113.136C139.873 111.579 138.606 110.281 137.069 109.378C135.532 108.475 133.782 108 132 108H128.2C129.716 106.597 130.925 104.896 131.751 103.002C132.578 101.109 133.003 99.0656 133 97Z" fill="#242426"/>
<path d="M132 112C132.789 111.998 133.57 112.152 134.299 112.452C135.028 112.753 135.69 113.195 136.247 113.753C136.805 114.31 137.247 114.973 137.548 115.701C137.848 116.43 138.002 117.211 138 118V120C138 127.884 130.56 136 118 136C105.44 136 98 127.884 98 120V118C97.9979 117.211 98.1517 116.43 98.4524 115.701C98.7532 114.973 99.1951 114.31 99.7527 113.753C100.31 113.195 100.973 112.753 101.701 112.452C102.43 112.152 103.211 111.998 104 112H132Z" fill="#242426"/>
<path d="M82 98C82 104.348 86.824 110.848 95.26 113.136C96.1269 111.579 97.3943 110.281 98.931 109.378C100.468 108.475 102.218 108 104 108H107.8C106.284 106.597 105.075 104.896 104.249 103.002C103.422 101.109 102.997 99.0656 103 97C103 94.472 103.624 92.088 104.732 90H88C86.4087 90 84.8826 90.6321 83.7574 91.7574C82.6321 92.8826 82 94.4087 82 96V98Z" fill="#242426"/>
<path d="M113 75C113 72.0826 111.841 69.2847 109.778 67.2218C107.715 65.1589 104.917 64 102 64C99.0826 64 96.2847 65.1589 94.2218 67.2218C92.1589 69.2847 91 72.0826 91 75C91 77.9174 92.1589 80.7153 94.2218 82.7782C96.2847 84.8411 99.0826 86 102 86C104.917 86 107.715 84.8411 109.778 82.7782C111.841 80.7153 113 77.9174 113 75Z" fill="#242426"/>
<path d="M145 75C145 72.0826 143.841 69.2847 141.778 67.2218C139.715 65.1589 136.917 64 134 64C131.083 64 128.285 65.1589 126.222 67.2218C124.159 69.2847 123 72.0826 123 75C123 77.9174 124.159 80.7153 126.222 82.7782C128.285 84.8411 131.083 86 134 86C136.917 86 139.715 84.8411 141.778 82.7782C143.841 80.7153 145 77.9174 145 75Z" fill="#242426"/>
<defs>
<filter id="filter0_d_1_312" x="3" y="0" width="230" height="230" filterUnits="userSpaceOnUse" color-interpolation-filters="sRGB">
<feFlood flood-opacity="0" result="BackgroundImageFix"/>
<feColorMatrix in="SourceAlpha" type="matrix" values="0 0 0 0 0 0 0 0 0 0 0 0 0 0 0 0 0 0 127 0" result="hardAlpha"/>
<feOffset dy="15"/>
<feGaussianBlur stdDeviation="10"/>
<feComposite in2="hardAlpha" operator="out"/>
<feColorMatrix type="matrix" values="0 0 0 0 0 0 0 0 0 0 0 0 0 0 0 0 0 0 0.05 0"/>
<feBlend mode="normal" in2="BackgroundImageFix" result="effect1_dropShadow_1_312"/>
<feBlend mode="normal" in="SourceGraphic" in2="effect1_dropShadow_1_312" result="shape"/>
</filter>
</defs>
</svg>
